<svg xmlns="http://www.w3.org/2000/svg" width="1269" height="389" viewBox="0 0 1269 389">
<path d="M 928.00,286.25 L 928.25,327.75 L 974.75,327.50 L 974.50,323.00 L 936.25,323.00 L 934.75,321.50 L 934.75,286.25 Z" fill="#FFFFFF" fill-rule="evenodd"/>
<path d="M 813.00,288.25 L 813.25,327.75 L 862.75,327.50 L 862.50,323.00 L 823.25,323.00 L 820.75,320.50 L 820.75,311.25 L 822.25,309.75 L 855.75,309.50 L 855.50,305.00 L 823.25,305.00 L 820.75,302.50 L 820.75,293.25 L 823.25,290.75 L 861.50,290.75 L 861.50,286.00 L 815.25,286.00 Z" fill="#FFFFFF" fill-rule="evenodd"/>
<path d="M 693.00,286.25 L 693.25,327.75 L 730.50,327.75 L 732.25,325.75 L 736.50,325.75 L 737.25,324.75 L 740.50,324.75 L 741.25,323.75 L 742.50,323.75 L 748.75,317.50 L 748.75,316.25 L 750.75,313.50 L 750.75,299.25 L 749.75,298.50 L 749.75,297.25 L 743.50,291.00 L 742.25,291.00 L 740.50,289.00 L 737.25,289.00 L 736.50,288.00 L 730.25,288.00 L 728.50,286.00 Z M 700.75,293.25 L 703.25,290.75 L 726.50,290.75 L 729.25,292.75 L 733.50,292.75 L 734.25,293.75 L 735.50,293.75 L 743.00,301.25 L 743.00,313.50 L 738.50,319.00 L 737.25,319.00 L 735.50,321.00 L 731.25,321.00 L 729.50,323.00 L 702.25,323.00 L 700.75,321.50 L 700.75,316.25 L 700.00,315.75 L 700.75,314.50 Z" fill="#FFFFFF" fill-rule="evenodd"/>
<path d="M 569.25,327.00 L 569.25,327.75 L 576.50,327.75 L 585.25,317.75 L 617.50,317.75 L 620.00,320.25 L 620.00,322.50 L 624.00,326.25 L 624.25,327.75 L 631.50,327.75 L 631.75,326.25 L 630.75,325.50 L 630.75,323.25 L 624.75,316.50 L 624.75,315.25 L 623.75,314.50 L 623.75,312.25 L 617.75,305.50 L 617.75,303.25 L 615.75,301.50 L 615.75,300.25 L 609.75,293.50 L 609.75,291.25 L 606.75,288.50 L 606.75,287.25 L 605.50,286.00 L 596.25,286.00 L 595.00,287.25 L 595.00,289.50 L 592.00,292.25 L 592.00,293.50 L 590.00,295.25 L 590.00,296.50 L 587.00,299.25 L 587.00,301.50 L 584.00,304.25 L 582.00,309.50 L 577.00,315.25 L 577.00,316.50 L 574.00,319.25 L 574.00,321.50 Z M 600.00,293.00 L 605.00,297.25 L 605.00,298.50 L 608.00,301.25 L 608.00,303.50 L 613.00,309.25 L 613.00,311.50 L 611.50,313.00 L 590.25,313.00 L 588.75,311.50 L 588.75,309.25 L 589.75,308.50 L 589.75,307.25 L 592.75,304.50 L 592.75,303.25 L 594.75,301.50 L 594.75,299.25 Z" fill="#FFFFFF" fill-rule="evenodd"/>
<path d="M 466.00,327.50 L 472.75,327.50 L 472.75,326.25 L 473.75,325.50 L 473.75,315.25 L 475.25,313.75 L 503.50,313.75 L 506.25,311.75 L 513.50,310.75 L 517.75,306.50 L 517.75,301.25 L 518.75,300.50 L 518.75,298.25 L 517.75,297.50 L 517.75,294.25 L 515.75,292.50 L 515.75,291.25 L 513.50,289.00 L 510.25,289.00 L 509.50,288.00 L 504.25,288.00 L 501.50,286.00 L 466.25,286.00 Z M 473.75,293.25 L 476.25,290.75 L 502.50,290.75 L 505.25,292.75 L 508.50,292.75 L 510.00,294.25 L 510.00,296.50 L 511.00,297.25 L 511.00,303.50 L 507.50,307.00 L 505.25,307.00 L 503.50,309.00 L 476.25,309.00 L 473.75,306.50 Z" fill="#FFFFFF" fill-rule="evenodd"/>
<path d="M 392.25,164.00 L 387.00,167.25 L 387.00,168.50 L 386.00,169.25 L 386.00,176.50 L 391.25,180.75 L 396.50,180.75 L 401.75,176.50 L 401.75,169.25 L 399.50,166.00 L 398.25,166.00 L 395.50,164.00 Z" fill="#FFFFFF" fill-rule="evenodd"/>
<path d="M 426.25,131.00 L 425.50,132.00 L 424.25,132.00 L 421.00,136.25 L 421.00,142.50 L 425.25,146.75 L 427.50,146.75 L 428.25,147.75 L 429.50,147.75 L 430.25,146.75 L 432.50,146.75 L 435.75,144.50 L 437.50,139.00 L 436.75,138.50 L 436.75,135.25 L 432.50,131.00 Z" fill="#FFFFFF" fill-rule="evenodd"/>
<path d="M 388.25,132.00 L 385.00,136.25 L 385.00,141.50 L 386.00,142.25 L 386.00,143.50 L 389.25,146.75 L 391.50,146.75 L 392.25,147.75 L 397.50,146.75 L 400.75,143.50 L 400.75,141.25 L 401.75,140.50 L 401.75,137.25 L 400.75,136.50 L 399.75,133.25 L 398.25,133.00 L 396.50,131.00 L 390.25,131.00 L 389.50,132.00 Z" fill="#FFFFFF" fill-rule="evenodd"/>
<path d="M 350.25,132.00 L 347.00,137.25 L 347.00,141.50 L 348.00,142.25 L 348.00,143.50 L 351.25,146.75 L 353.50,146.75 L 354.25,147.75 L 359.50,146.75 L 363.75,141.50 L 363.75,136.25 L 362.75,135.50 L 362.75,134.25 L 358.50,131.00 L 352.25,131.00 L 351.50,132.00 Z" fill="#FFFFFF" fill-rule="evenodd"/>
<path d="M 457.25,98.00 L 454.00,102.25 L 454.00,108.50 L 455.00,109.25 L 455.00,110.50 L 460.25,113.75 L 464.50,113.75 L 465.25,112.75 L 466.50,112.75 L 469.75,109.50 L 469.75,107.25 L 470.75,106.50 L 469.75,101.25 L 464.50,97.00 L 460.25,97.00 L 459.50,98.00 Z" fill="#FFFFFF" fill-rule="evenodd"/>
<path d="M 425.25,96.00 L 425.00,97.50 L 423.00,99.25 L 423.00,105.50 L 424.00,106.25 L 424.00,107.50 L 428.25,110.75 L 434.50,110.75 L 438.75,106.50 L 438.75,103.25 L 439.50,102.00 L 438.75,101.50 L 438.75,99.25 L 437.75,98.50 L 437.75,97.25 L 434.50,95.00 L 432.25,95.00 L 431.50,94.00 Z" fill="#FFFFFF" fill-rule="evenodd"/>
<path d="M 389.25,95.00 L 385.00,100.25 L 385.00,105.50 L 386.00,106.25 L 386.00,107.50 L 390.25,110.75 L 396.50,110.75 L 398.25,108.75 L 399.75,108.50 L 399.75,107.25 L 401.75,104.50 L 401.75,101.25 L 400.75,100.50 L 400.75,98.25 L 397.50,95.00 L 395.25,95.00 L 394.50,94.00 Z" fill="#FFFFFF" fill-rule="evenodd"/>
<path d="M 351.25,95.00 L 347.00,100.25 L 347.00,104.50 L 348.00,105.25 L 349.00,108.50 L 352.25,110.75 L 358.50,110.75 L 359.25,109.75 L 360.50,109.75 L 363.75,105.50 L 363.75,100.25 L 362.75,99.50 L 362.75,98.25 L 359.50,95.00 L 357.25,95.00 L 356.50,94.00 Z" fill="#FFFFFF" fill-rule="evenodd"/>
<path d="M 428.25,61.00 L 427.50,62.00 L 426.25,62.00 L 423.00,66.25 L 423.00,72.50 L 425.00,74.25 L 425.25,75.75 L 426.50,75.75 L 427.25,76.75 L 429.50,76.75 L 430.25,77.75 L 432.50,77.75 L 437.75,74.50 L 437.75,73.25 L 438.75,72.50 L 438.75,70.25 L 439.50,69.75 L 438.75,68.50 L 438.75,65.25 L 434.50,61.00 Z" fill="#FFFFFF" fill-rule="evenodd"/>
<path d="M 391.25,61.00 L 387.00,65.25 L 387.00,66.50 L 386.00,67.25 L 386.00,70.50 L 387.00,71.25 L 387.00,73.50 L 390.25,76.75 L 392.50,76.75 L 393.25,77.75 L 398.50,76.75 L 402.75,71.50 L 402.75,66.25 L 401.75,65.50 L 401.75,64.25 L 397.50,61.00 Z" fill="#FFFFFF" fill-rule="evenodd"/>
<path d="M 354.25,61.00 L 349.00,65.25 L 349.00,72.50 L 351.25,75.75 L 352.50,75.75 L 355.25,77.75 L 357.50,77.75 L 358.25,76.75 L 360.50,76.75 L 363.75,74.50 L 363.75,73.25 L 364.75,72.50 L 364.75,65.25 L 359.50,61.00 Z" fill="#FFFFFF" fill-rule="evenodd"/>
<path d="M 964.25,209.75 L 1000.50,209.75 L 1000.75,208.25 L 1002.75,206.50 L 1002.75,205.25 L 1004.75,203.50 L 1004.75,201.25 L 1008.75,197.50 L 1008.75,196.25 L 1013.75,190.50 L 1013.75,189.25 L 1016.75,185.50 L 1016.75,184.25 L 1019.75,181.50 L 1019.75,179.25 L 1027.25,170.75 L 1137.75,170.50 L 1136.75,167.25 L 1134.50,165.00 L 1132.25,165.00 L 1113.50,146.00 L 1046.25,146.00 L 1044.75,144.50 L 1044.75,143.25 L 1048.75,138.50 L 1048.75,137.25 L 1051.75,133.50 L 1051.75,132.25 L 1057.75,125.50 L 1057.75,123.25 L 1058.75,122.50 L 1058.75,121.25 L 1061.75,118.50 L 1061.75,116.25 L 1067.75,109.50 L 1067.75,108.25 L 1069.75,106.50 L 1071.75,101.25 L 1074.75,98.50 L 1074.75,96.25 L 1081.75,87.50 L 1081.75,85.25 L 1086.75,79.50 L 1086.75,77.25 L 1092.75,70.50 L 1092.75,69.25 L 1093.75,68.50 L 1093.75,66.25 L 1095.25,64.75 L 1097.50,64.75 L 1100.00,67.25 L 1100.00,68.50 L 1103.00,71.25 L 1103.00,73.50 L 1109.00,80.25 L 1109.00,82.50 L 1112.00,85.25 L 1112.00,86.50 L 1116.00,91.25 L 1116.00,93.50 L 1119.00,96.25 L 1119.00,97.50 L 1121.00,99.25 L 1122.00,102.50 L 1127.00,108.25 L 1127.00,109.50 L 1130.00,112.25 L 1130.00,114.50 L 1133.00,117.25 L 1133.00,118.50 L 1135.00,120.25 L 1136.00,123.50 L 1141.00,129.25 L 1141.00,130.50 L 1142.00,131.25 L 1142.00,133.50 L 1148.00,140.25 L 1148.00,142.50 L 1154.00,149.25 L 1154.00,150.50 L 1156.00,152.25 L 1156.00,154.50 L 1162.00,161.25 L 1162.00,163.50 L 1165.00,166.25 L 1166.00,169.50 L 1169.00,172.25 L 1169.00,174.50 L 1175.00,181.25 L 1175.00,183.50 L 1180.00,189.25 L 1180.00,190.50 L 1183.00,193.25 L 1183.00,195.50 L 1186.00,198.25 L 1186.00,199.50 L 1188.00,201.25 L 1190.00,206.50 L 1193.25,209.75 L 1246.50,209.75 L 1243.75,206.50 L 1243.75,204.25 L 1240.75,201.50 L 1239.75,198.25 L 1236.75,195.50 L 1236.75,193.25 L 1230.75,186.50 L 1230.75,184.25 L 1229.75,183.50 L 1229.75,182.25 L 1226.75,179.50 L 1226.75,178.25 L 1225.75,177.50 L 1225.75,175.25 L 1219.75,168.50 L 1219.75,166.25 L 1218.75,165.50 L 1218.75,164.25 L 1212.75,157.50 L 1212.75,155.25 L 1211.75,154.50 L 1211.75,153.25 L 1208.75,150.50 L 1208.75,148.25 L 1205.75,145.50 L 1204.75,142.25 L 1201.75,139.50 L 1201.75,137.25 L 1200.75,136.50 L 1200.75,135.25 L 1197.75,132.50 L 1197.75,130.25 L 1191.75,123.50 L 1191.75,122.25 L 1190.75,121.50 L 1190.75,119.25 L 1187.75,116.50 L 1185.75,111.25 L 1183.75,109.50 L 1183.75,108.25 L 1179.75,103.50 L 1179.75,101.25 L 1174.75,95.50 L 1174.75,93.25 L 1169.75,87.50 L 1167.75,82.25 L 1160.75,73.50 L 1158.75,68.25 L 1156.75,66.50 L 1156.75,64.25 L 1153.75,61.50 L 1153.75,60.25 L 1149.75,55.50 L 1148.75,52.25 L 1145.75,49.50 L 1145.75,48.25 L 1144.75,47.50 L 1144.75,45.25 L 1141.75,42.50 L 1141.75,41.25 L 1139.75,39.50 L 1139.75,37.25 L 1135.50,32.00 L 1072.00,32.25 L 1072.00,33.50 L 1068.00,38.25 L 1068.00,40.50 L 1065.00,43.25 L 1064.00,46.50 L 1061.00,49.25 L 1061.00,51.50 L 1058.00,54.25 L 1058.00,55.50 L 1056.00,57.25 L 1054.00,62.50 L 1051.00,65.25 L 1049.00,71.50 L 1046.00,74.25 L 1045.00,77.50 L 1040.00,83.25 L 1040.00,84.50 L 1039.00,85.25 L 1039.00,87.50 L 1036.00,90.25 L 1034.00,95.50 L 1032.00,97.25 L 1032.00,98.50 L 1028.00,103.25 L 1027.00,106.50 L 1023.00,111.25 L 1023.00,113.50 L 1022.00,114.25 L 1022.00,115.50 L 1016.00,122.25 L 1016.00,124.50 L 1012.00,129.25 L 1012.00,131.50 L 1009.00,134.25 L 1006.00,141.50 L 1001.00,147.25 L 1001.00,149.50 L 1000.00,150.25 L 1000.00,151.50 L 997.00,154.25 L 997.00,155.50 L 995.00,157.25 L 995.00,159.50 L 990.00,165.25 L 990.00,166.50 L 987.00,170.25 L 986.00,173.50 L 983.00,176.25 L 983.00,178.50 L 981.00,180.25 L 981.00,181.50 L 980.00,182.25 L 980.00,184.50 L 977.00,186.25 L 977.00,188.50 L 974.00,191.25 L 974.00,192.50 L 973.00,193.25 L 973.00,195.50 L 970.00,198.25 L 969.00,201.50 L 967.00,203.25 L 967.00,204.50 Z" fill="#FFFFFF" fill-rule="evenodd"/>
<path d="M 755.00,32.25 L 755.25,209.75 L 953.75,209.50 L 953.75,208.25 L 957.75,204.50 L 958.75,201.25 L 964.75,194.50 L 964.75,193.25 L 967.75,189.50 L 967.75,188.25 L 972.75,183.50 L 972.50,181.00 L 798.25,181.00 L 797.75,133.25 L 799.25,131.75 L 923.50,131.75 L 924.25,130.75 L 931.50,130.75 L 932.75,131.50 L 932.75,129.25 L 941.75,119.50 L 941.75,117.25 L 944.75,114.50 L 944.75,113.25 L 946.75,111.50 L 946.75,110.25 L 952.50,104.75 L 952.50,104.00 L 800.25,104.00 L 797.75,101.50 L 797.75,61.25 L 800.25,58.75 L 968.50,58.75 L 969.75,57.50 L 969.75,56.25 L 973.75,52.50 L 973.75,50.25 L 976.75,47.50 L 976.75,46.25 L 983.75,38.50 L 983.75,36.25 L 986.75,33.50 L 986.50,32.00 Z" fill="#FFFFFF" fill-rule="evenodd"/>
<path d="M 542.00,32.25 L 542.25,209.75 L 728.50,209.75 L 731.75,206.50 L 731.75,204.25 L 734.75,201.50 L 734.75,200.25 L 736.75,198.50 L 736.75,197.25 L 739.75,193.50 L 739.75,192.25 L 743.75,188.50 L 743.75,187.25 L 745.25,185.75 L 746.75,185.50 L 746.75,183.25 L 745.50,182.00 L 741.25,182.00 L 740.50,181.00 L 588.25,181.00 L 587.75,32.25 Z" fill="#FFFFFF" fill-rule="evenodd"/>
<path d="M 32.00,54.25 L 32.00,55.50 L 31.00,56.25 L 31.00,58.50 L 28.00,62.25 L 28.00,65.50 L 27.00,66.25 L 27.00,73.50 L 25.00,75.25 L 25.00,90.50 L 27.00,93.25 L 27.00,98.50 L 28.00,99.25 L 28.00,102.50 L 32.00,107.25 L 33.00,110.50 L 39.25,116.75 L 41.50,116.75 L 43.25,118.75 L 45.50,118.75 L 47.25,120.75 L 49.50,120.75 L 53.25,123.75 L 56.50,123.75 L 57.25,124.75 L 60.50,124.75 L 61.25,125.75 L 65.50,125.75 L 67.25,127.75 L 73.50,127.75 L 74.25,128.75 L 79.50,128.75 L 81.25,130.75 L 90.50,130.75 L 91.25,131.75 L 100.50,131.75 L 101.25,132.75 L 111.50,132.75 L 113.25,134.75 L 134.50,135.75 L 136.25,137.75 L 144.50,137.75 L 145.25,138.75 L 155.50,138.75 L 156.25,139.75 L 166.50,139.75 L 168.25,141.75 L 178.50,141.75 L 179.25,142.75 L 187.50,142.75 L 189.25,144.75 L 197.50,144.75 L 198.25,145.75 L 205.50,145.75 L 206.25,146.75 L 210.50,146.75 L 213.25,148.75 L 218.50,149.75 L 224.00,155.25 L 224.00,157.50 L 226.00,159.25 L 226.00,169.50 L 224.00,171.25 L 224.00,173.50 L 217.50,180.00 L 214.25,180.00 L 213.50,181.00 L 32.25,181.00 L 31.00,182.25 L 31.00,184.50 L 27.00,188.25 L 27.00,189.50 L 21.00,196.25 L 21.00,198.50 L 20.00,199.25 L 20.00,200.50 L 17.00,203.25 L 17.00,205.50 L 14.00,208.25 L 14.25,209.75 L 218.50,209.75 L 219.25,208.75 L 229.50,208.75 L 230.25,207.75 L 234.50,207.75 L 236.25,205.75 L 243.50,204.75 L 245.25,202.75 L 251.50,200.75 L 253.25,198.75 L 254.50,198.75 L 265.75,186.50 L 265.75,185.25 L 266.75,184.50 L 266.75,181.25 L 268.75,179.50 L 268.75,173.25 L 269.75,172.50 L 269.75,151.25 L 268.75,150.50 L 268.75,146.25 L 266.75,144.50 L 266.75,143.25 L 265.75,142.50 L 265.75,140.25 L 262.75,137.50 L 262.75,136.25 L 252.50,127.00 L 250.25,127.00 L 246.50,124.00 L 239.25,123.00 L 237.50,121.00 L 234.25,121.00 L 233.50,120.00 L 229.25,120.00 L 227.50,118.00 L 223.25,118.00 L 222.50,117.00 L 215.25,117.00 L 214.50,116.00 L 209.25,116.00 L 206.50,114.00 L 191.25,113.00 L 189.50,111.00 L 181.25,111.00 L 180.50,110.00 L 165.25,109.00 L 163.50,107.00 L 155.25,107.00 L 154.50,106.00 L 147.25,106.00 L 144.50,104.00 L 138.25,104.00 L 137.50,103.00 L 128.25,103.00 L 127.50,102.00 L 120.25,102.00 L 118.50,100.00 L 103.25,99.00 L 101.50,97.00 L 96.25,97.00 L 95.50,96.00 L 89.25,96.00 L 85.50,93.00 L 82.25,93.00 L 76.75,87.50 L 76.75,86.25 L 74.75,84.50 L 74.75,81.25 L 73.75,80.50 L 73.75,73.25 L 74.75,72.50 L 74.75,69.25 L 81.25,62.75 L 82.50,62.75 L 83.25,61.75 L 86.50,61.75 L 87.25,60.75 L 258.50,60.75 L 259.75,59.50 L 259.75,58.25 L 263.75,54.50 L 263.75,52.25 L 268.75,47.50 L 268.75,46.25 L 270.75,44.50 L 271.75,41.25 L 276.75,35.50 L 276.75,34.25 L 278.50,32.00 L 79.25,32.00 L 78.50,33.00 L 70.25,33.00 L 69.50,34.00 L 65.25,34.00 L 62.50,36.00 L 58.25,36.00 L 57.50,37.00 L 54.25,37.00 L 50.50,40.00 L 47.25,40.00 L 44.50,43.00 L 43.25,43.00 Z" fill="#FFFFFF" fill-rule="evenodd"/>
<path d="M 446.50,15.00 L 443.25,15.00 L 442.50,14.00 L 439.25,14.00 L 438.50,13.00 L 435.25,13.00 L 434.50,12.00 L 430.25,12.00 L 429.50,11.00 L 423.25,11.00 L 422.50,10.00 L 415.25,10.00 L 414.50,9.00 L 401.25,9.00 L 400.50,8.00 L 384.25,8.00 L 383.50,9.00 L 374.25,9.00 L 373.50,10.00 L 364.25,11.00 L 363.50,12.00 L 361.25,12.00 L 360.50,13.00 L 357.25,13.00 L 356.50,14.00 L 354.25,14.00 L 351.50,16.00 L 349.25,16.00 L 348.50,17.00 L 347.25,17.00 L 346.50,18.00 L 345.25,18.00 L 344.50,19.00 L 335.25,23.00 L 333.50,25.00 L 332.25,25.00 L 330.50,27.00 L 329.25,27.00 L 326.50,30.00 L 325.25,30.00 L 318.50,37.00 L 317.25,37.00 L 316.00,38.25 L 316.00,39.50 L 309.00,46.25 L 309.00,47.50 L 306.00,50.25 L 306.00,51.50 L 302.00,56.25 L 301.00,59.50 L 299.00,61.25 L 299.00,62.50 L 296.00,67.25 L 296.00,69.50 L 294.00,72.25 L 294.00,74.50 L 292.00,77.25 L 292.00,79.50 L 291.00,80.25 L 291.00,83.50 L 290.00,84.25 L 290.00,86.50 L 289.00,87.25 L 289.00,91.50 L 288.00,92.25 L 288.00,96.50 L 287.00,97.25 L 287.00,104.50 L 286.00,105.25 L 286.00,128.50 L 287.00,129.25 L 287.00,134.50 L 288.00,135.25 L 288.00,139.50 L 289.00,140.25 L 289.00,142.50 L 290.00,143.25 L 290.00,145.50 L 291.00,146.25 L 292.00,151.50 L 296.00,158.25 L 296.00,160.50 L 297.00,161.25 L 297.00,162.50 L 299.00,164.25 L 301.00,169.50 L 305.00,174.25 L 306.00,177.50 L 309.00,180.25 L 309.00,181.50 L 311.00,183.25 L 311.00,184.50 L 313.00,186.25 L 313.00,187.50 L 316.00,190.25 L 316.00,191.50 L 318.00,193.25 L 318.00,194.50 L 321.00,197.25 L 321.00,198.50 L 327.00,205.25 L 327.00,206.50 L 329.00,208.25 L 329.00,209.50 L 332.00,212.25 L 332.00,213.50 L 337.00,219.25 L 337.00,220.50 L 339.00,222.25 L 339.00,223.50 L 341.00,225.25 L 341.00,226.50 L 343.00,228.25 L 343.00,229.50 L 345.00,231.25 L 345.00,232.50 L 347.00,234.25 L 347.00,235.50 L 350.00,238.25 L 350.00,239.50 L 354.00,244.25 L 354.00,245.50 L 359.00,254.25 L 359.00,256.50 L 360.00,257.25 L 360.00,260.50 L 361.00,261.25 L 361.00,264.50 L 362.00,265.25 L 362.00,269.50 L 362.75,269.50 L 362.75,268.25 L 364.75,265.50 L 364.75,263.25 L 365.75,262.50 L 365.75,260.25 L 366.75,259.50 L 366.75,257.25 L 367.75,256.50 L 367.75,253.25 L 368.75,252.50 L 368.75,247.25 L 369.75,246.50 L 369.75,231.25 L 368.75,230.50 L 368.75,226.25 L 367.75,225.50 L 366.75,220.25 L 364.75,217.50 L 364.75,215.25 L 362.75,213.50 L 362.75,212.25 L 361.75,211.50 L 360.75,208.25 L 358.75,206.50 L 358.75,205.25 L 355.75,202.50 L 355.75,201.25 L 349.75,195.50 L 349.75,194.25 L 342.75,187.50 L 342.75,186.25 L 338.75,182.50 L 338.75,181.25 L 332.75,174.50 L 332.75,173.25 L 328.75,168.50 L 327.75,165.25 L 325.75,163.50 L 325.75,162.25 L 324.75,161.50 L 324.75,160.25 L 323.75,159.50 L 323.75,158.25 L 322.75,157.50 L 322.75,156.25 L 317.75,147.50 L 317.75,145.25 L 315.75,142.50 L 315.75,140.25 L 314.75,139.50 L 314.75,136.25 L 313.75,135.50 L 313.75,133.25 L 312.75,132.50 L 312.75,129.25 L 311.75,128.50 L 311.75,123.25 L 310.75,122.50 L 310.75,116.25 L 309.75,115.50 L 309.75,94.25 L 310.75,93.50 L 310.75,88.25 L 311.75,87.50 L 311.75,83.25 L 312.75,82.50 L 313.75,77.25 L 314.75,76.50 L 318.75,67.25 L 323.75,61.50 L 323.75,60.25 L 332.25,51.75 L 333.50,51.75 L 336.25,48.75 L 337.50,48.75 L 342.25,44.75 L 343.50,44.75 L 348.25,41.75 L 350.50,41.75 L 353.25,39.75 L 355.50,39.75 L 356.25,38.75 L 358.50,38.75 L 359.25,37.75 L 361.50,37.75 L 362.25,36.75 L 365.50,36.75 L 366.25,35.75 L 370.50,35.75 L 371.25,34.75 L 377.50,34.75 L 378.25,33.75 L 412.50,33.75 L 413.25,34.75 L 420.50,34.75 L 421.25,35.75 L 426.50,35.75 L 427.25,36.75 L 431.50,36.75 L 432.25,37.75 L 435.50,37.75 L 436.25,38.75 L 439.50,38.75 L 440.25,39.75 L 445.50,40.75 L 448.25,42.75 L 450.50,42.75 L 451.25,43.75 L 460.50,47.75 L 462.25,49.75 L 463.50,49.75 L 465.25,51.75 L 466.50,51.75 L 469.25,54.75 L 470.50,54.75 L 479.00,63.25 L 479.00,64.50 L 484.00,70.25 L 486.00,75.50 L 488.00,77.25 L 488.00,79.50 L 490.00,82.25 L 490.00,84.50 L 491.00,85.25 L 491.00,87.50 L 492.00,88.25 L 492.00,90.50 L 493.00,91.25 L 493.00,95.50 L 494.00,96.25 L 494.00,100.50 L 495.00,101.25 L 495.00,111.50 L 496.00,112.25 L 495.00,133.50 L 494.00,134.25 L 494.00,138.50 L 493.00,139.25 L 493.00,142.50 L 492.00,143.25 L 492.00,146.50 L 491.00,147.25 L 491.00,149.50 L 490.00,150.25 L 489.00,155.50 L 488.00,156.25 L 488.00,157.50 L 487.00,158.25 L 483.00,167.50 L 481.00,169.25 L 481.00,170.50 L 479.00,172.25 L 479.00,173.50 L 476.00,176.25 L 476.00,177.50 L 470.00,183.25 L 470.00,184.50 L 466.50,188.00 L 465.25,188.00 L 458.50,195.00 L 457.25,195.00 L 450.50,201.00 L 447.25,202.00 L 442.50,206.00 L 441.25,206.00 L 440.50,207.00 L 439.25,207.00 L 438.50,208.00 L 437.25,208.00 L 436.50,209.00 L 435.25,209.00 L 434.50,210.00 L 433.25,210.00 L 432.50,211.00 L 431.25,211.00 L 430.50,212.00 L 429.25,212.00 L 428.50,213.00 L 419.25,217.00 L 417.50,219.00 L 414.25,220.00 L 411.50,223.00 L 410.25,223.00 L 407.50,226.00 L 406.25,226.00 L 400.50,232.00 L 399.25,232.00 L 396.00,235.25 L 396.00,236.50 L 389.00,243.25 L 389.00,244.50 L 383.00,251.25 L 383.00,252.50 L 381.00,254.25 L 380.00,257.50 L 378.00,259.25 L 376.00,264.50 L 374.00,266.25 L 374.00,267.50 L 372.00,270.25 L 372.00,272.50 L 368.00,279.25 L 368.00,281.50 L 365.00,286.25 L 365.00,288.50 L 363.00,291.25 L 363.00,293.50 L 360.00,298.25 L 360.00,300.50 L 359.00,301.25 L 359.00,302.50 L 358.00,303.25 L 358.00,305.50 L 356.00,308.25 L 356.00,311.50 L 355.00,312.25 L 355.00,314.50 L 354.00,315.25 L 353.00,320.50 L 351.00,323.25 L 351.00,325.50 L 349.00,328.25 L 349.00,330.50 L 348.00,331.25 L 348.00,332.50 L 347.00,333.25 L 347.00,335.50 L 345.00,338.25 L 345.00,340.50 L 344.00,341.25 L 343.00,346.50 L 341.00,349.25 L 341.00,351.50 L 340.00,352.25 L 340.00,354.50 L 339.00,355.25 L 339.00,357.50 L 338.00,358.25 L 338.00,360.50 L 337.00,361.25 L 337.00,363.50 L 336.00,364.25 L 336.00,366.50 L 335.00,367.25 L 335.00,369.50 L 334.00,370.25 L 334.00,372.50 L 333.00,373.25 L 332.25,378.75 L 358.75,377.50 L 358.75,369.25 L 359.75,368.50 L 359.75,360.25 L 360.75,359.50 L 360.75,352.25 L 361.75,351.50 L 361.75,346.25 L 362.75,345.50 L 362.75,341.25 L 363.75,340.50 L 364.75,331.25 L 365.75,330.50 L 366.75,323.25 L 367.75,322.50 L 367.75,320.25 L 368.75,319.50 L 368.75,316.25 L 369.75,315.50 L 369.75,313.25 L 371.75,310.50 L 371.75,308.25 L 372.75,307.50 L 372.75,305.25 L 373.75,304.50 L 374.75,299.25 L 377.75,294.50 L 377.75,292.25 L 378.75,291.50 L 380.75,286.25 L 382.75,284.50 L 383.75,281.25 L 385.75,279.50 L 385.75,278.25 L 387.75,276.50 L 387.75,275.25 L 389.75,273.50 L 389.75,272.25 L 393.75,268.50 L 393.75,267.25 L 407.25,253.75 L 408.50,253.75 L 412.25,249.75 L 413.50,249.75 L 415.25,247.75 L 416.50,247.75 L 421.25,243.75 L 422.50,243.75 L 423.25,242.75 L 424.50,242.75 L 425.25,241.75 L 434.50,237.75 L 436.25,235.75 L 437.50,235.75 L 438.25,234.75 L 439.50,234.75 L 440.25,233.75 L 449.50,229.75 L 451.25,227.75 L 456.50,225.75 L 458.25,223.75 L 461.50,222.75 L 463.25,220.75 L 466.50,219.75 L 468.25,217.75 L 469.50,217.75 L 471.25,215.75 L 472.50,215.75 L 475.25,212.75 L 476.50,212.75 L 483.25,206.75 L 484.50,206.75 L 500.75,190.50 L 500.75,189.25 L 503.75,186.50 L 503.75,185.25 L 507.75,180.50 L 507.75,179.25 L 508.75,178.50 L 508.75,177.25 L 513.75,168.50 L 513.75,166.25 L 514.75,165.50 L 514.75,163.25 L 515.75,162.50 L 515.75,160.25 L 516.75,159.50 L 516.75,156.25 L 517.75,155.50 L 517.75,152.25 L 518.75,151.50 L 518.75,146.25 L 519.75,145.50 L 519.75,138.25 L 520.75,137.50 L 520.75,116.25 L 519.75,115.50 L 519.75,105.25 L 518.75,104.50 L 518.75,98.25 L 517.75,97.50 L 516.75,88.25 L 515.75,87.50 L 515.75,84.25 L 514.75,83.50 L 514.75,81.25 L 513.75,80.50 L 512.75,75.25 L 510.75,72.50 L 510.75,70.25 L 509.75,69.50 L 509.75,68.25 L 508.75,67.50 L 504.75,58.25 L 502.75,56.50 L 502.75,55.25 L 500.75,53.50 L 500.75,52.25 L 498.75,50.50 L 498.75,49.25 L 491.75,42.50 L 491.75,41.25 L 489.50,39.00 L 488.25,39.00 L 482.50,33.00 L 481.25,33.00 L 478.50,30.00 L 475.25,29.00 L 473.50,27.00 L 470.25,26.00 L 468.50,24.00 L 467.25,24.00 L 462.50,21.00 L 460.25,21.00 L 457.50,19.00 L 455.25,19.00 L 452.50,17.00 L 447.25,16.00 Z" fill="#FFFFFF" fill-rule="evenodd"/>
<path d="M 481.75,156.25 L 481.00,156.25 L 473.50,164.00 L 472.25,164.00 L 465.50,171.00 L 464.25,171.00 L 459.50,176.00 L 458.25,176.00 L 454.50,180.00 L 453.25,180.00 L 451.50,182.00 L 450.25,182.00 L 447.50,185.00 L 446.25,185.00 L 444.50,187.00 L 443.25,187.00 L 441.50,189.00 L 440.25,189.00 L 439.50,190.00 L 438.25,190.00 L 436.50,192.00 L 435.25,192.00 L 434.50,193.00 L 433.25,193.00 L 432.50,194.00 L 431.25,194.00 L 430.50,195.00 L 429.25,195.00 L 428.50,196.00 L 427.25,196.00 L 426.50,197.00 L 424.25,197.00 L 423.50,198.00 L 419.25,198.00 L 418.50,199.00 L 417.25,199.00 L 415.00,201.25 L 415.00,202.50 L 414.00,203.25 L 414.00,204.50 L 415.00,205.25 L 415.00,207.50 L 417.25,209.75 L 421.50,209.75 L 422.25,208.75 L 424.50,208.75 L 425.25,207.75 L 426.50,207.75 L 427.25,206.75 L 428.50,206.75 L 429.25,205.75 L 430.50,205.75 L 431.25,204.75 L 432.50,204.75 L 434.25,202.75 L 435.50,202.75 L 436.25,201.75 L 437.50,201.75 L 439.25,199.75 L 440.50,199.75 L 443.25,196.75 L 444.50,196.75 L 448.25,192.75 L 449.50,192.75 L 455.25,186.75 L 456.50,186.75 L 470.75,172.50 L 470.75,171.25 L 475.75,166.50 L 475.75,165.25 L 478.75,162.50 L 478.75,161.25 L 480.75,159.50 L 480.75,158.25 L 481.75,157.50 Z" fill="#FFFFFF" fill-rule="evenodd"/>
</svg>